HIERARCHY
ROOT Hips
{
	OFFSET -0.001795 -0.223333 0.028219
	CHANNELS 6 Xposition Yposition Zposition Zrotation Yrotation Xrotation 
	JOINT LeftUpLeg
	{
		OFFSET 0.069520 -0.091406 -0.006815
		CHANNELS 3 Zrotation Yrotation Xrotation
		JOINT LeftLeg
		{
			OFFSET 0.034277 -0.375199 -0.004496
			CHANNELS 3 Zrotation Yrotation Xrotation
			JOINT LeftFoot
			{
				OFFSET -0.013596 -0.397961 -0.043693
				CHANNELS 3 Zrotation Yrotation Xrotation
				JOINT LeftToe
				{
					OFFSET 0.026358 -0.055791 0.119288
					CHANNELS 3 Zrotation Yrotation Xrotation
					End Site
					{
						OFFSET 0.000000 0.000000 0.000000
					}
				}
			}
		}
	}
	JOINT RightUpLeg
	{
		OFFSET -0.067670 -0.090522 -0.004320
		CHANNELS 3 Zrotation Yrotation Xrotation
		JOINT RightLeg
		{
			OFFSET -0.038290 -0.382569 -0.008850
			CHANNELS 3 Zrotation Yrotation Xrotation
			JOINT RightFoot
			{
				OFFSET 0.015774 -0.398415 -0.042312
				CHANNELS 3 Zrotation Yrotation Xrotation
				JOINT RightToe
				{
					OFFSET -0.025372 -0.048144 0.123348
					CHANNELS 3 Zrotation Yrotation Xrotation
					End Site
					{
						OFFSET 0.000000 0.000000 0.000000
					}
				}
			}
		}
	}
	JOINT Spine
	{
		OFFSET -0.002533 0.108963 -0.026696
		CHANNELS 3 Zrotation Yrotation Xrotation
		JOINT Spine1
		{
			OFFSET 0.005487 0.135180 0.001092
			CHANNELS 3 Zrotation Yrotation Xrotation
			JOINT Spine2
			{
				OFFSET 0.001457 0.052922 0.025425
				CHANNELS 3 Zrotation Yrotation Xrotation
				JOINT Neck
				{
					OFFSET -0.002778 0.213870 -0.042857
					CHANNELS 3 Zrotation Yrotation Xrotation
					JOINT Head
					{
						OFFSET 0.005152 0.064970 0.051349
						CHANNELS 3 Zrotation Yrotation Xrotation
						End Site
						{
							OFFSET 0.000000 0.000000 0.000000
						}
					}
				}
				JOINT LeftShoulder
				{
					OFFSET 0.078845 0.121749 -0.034090
					CHANNELS 3 Zrotation Yrotation Xrotation
					JOINT LeftArm
					{
						OFFSET 0.090977 0.030469 -0.008868
						CHANNELS 3 Zrotation Yrotation Xrotation
						JOINT LeftForeArm
						{
							OFFSET 0.259612 -0.012772 -0.027456
							CHANNELS 3 Zrotation Yrotation Xrotation
							JOINT LeftHand
							{
								OFFSET 0.249234 0.008986 -0.001171
								CHANNELS 3 Zrotation Yrotation Xrotation
								End Site
								{
									OFFSET 0.000000 0.000000 0.000000
								}
							}
						}
					}
				}
				JOINT RightShoulder
				{
					OFFSET -0.081759 0.118833 -0.038615
					CHANNELS 3 Zrotation Yrotation Xrotation
					JOINT RightArm
					{
						OFFSET -0.096012 0.032551 -0.009143
						CHANNELS 3 Zrotation Yrotation Xrotation
						JOINT RightForeArm
						{
							OFFSET -0.253742 -0.013329 -0.021401
							CHANNELS 3 Zrotation Yrotation Xrotation
							JOINT RightHand
							{
								OFFSET -0.255298 0.007772 -0.005559
								CHANNELS 3 Zrotation Yrotation Xrotation
								End Site
								{
									OFFSET 0.000000 0.000000 0.000000
								}
							}
						}
					}
				}
			}
		}
	}
}
MOTION
Frames: 10
Frame Time: 0.050000
-0.495939 0.918036 -0.056977 -4.702888 -13.565505 12.764165 14.796594 2.384018 -29.191514 -11.381917 4.568441 25.331632 10.604740 21.037369 5.279119 0.000000 0.000000 0.000000 -22.188555 0.251304 -33.671991 0.564625 0.512470 11.058758 -1.339362 -14.820830 37.449684 0.000000 0.000000 0.000000 2.619907 -0.940663 25.161088 0.330757 -0.125457 -4.117938 -2.358295 13.049674 9.864397 14.323751 -3.410895 -32.219791 0.000000 0.000000 0.000000 -9.687168 -23.063153 8.506296 -71.374763 -34.940687 13.583435 12.742381 -38.026851 -3.058014 0.000000 0.000000 0.000000 6.077379 12.303139 5.490562 85.166414 22.741961 12.176736 -24.735330 51.844996 -7.874213 0.000000 0.000000 0.000000 
-0.515210 0.925650 -0.054087 -4.570466 -12.363043 12.214627 14.222106 1.827795 -26.982833 -10.229915 3.660127 22.781725 10.683553 21.186139 6.019747 0.000000 0.000000 0.000000 -21.048000 0.264325 -32.465068 0.244590 0.508950 10.286639 -0.634603 -13.796948 37.150882 0.000000 0.000000 0.000000 2.972432 -1.093997 23.912765 0.531999 -0.202749 -4.810647 -2.485851 13.347723 10.232404 13.694695 -3.282767 -31.023281 0.000000 0.000000 0.000000 -9.187557 -21.677875 7.688076 -70.373539 -33.007006 11.748707 10.889141 -38.641912 -2.578979 0.000000 0.000000 0.000000 6.009424 12.251496 5.535156 86.499734 22.843834 12.893089 -23.252759 52.666868 -7.192807 0.000000 0.000000 0.000000 
-0.538892 0.929043 -0.050436 -4.671874 -11.816525 11.990684 14.466790 1.623309 -24.930026 -8.772044 2.837627 20.473130 9.806681 19.718348 5.693188 0.000000 0.000000 0.000000 -19.930401 0.381871 -31.695981 -0.133879 0.562782 10.162631 0.081610 -12.739815 36.147960 0.000000 0.000000 0.000000 2.915793 -1.085367 22.215186 0.205403 -0.066857 -5.197407 -2.183124 13.872372 10.182418 13.204580 -3.300573 -29.369769 0.000000 0.000000 0.000000 -9.287626 -20.350784 6.978664 -67.973238 -30.519223 9.460034 8.990163 -40.113291 -2.125564 0.000000 0.000000 0.000000 7.107536 11.463363 5.395506 86.454574 21.071138 11.400530 -20.942712 56.930562 -6.526866 0.000000 0.000000 0.000000 
-0.565184 0.930198 -0.045932 -4.328958 -10.797379 11.500882 14.501319 1.333628 -22.727780 -6.818807 1.942701 18.340116 9.284969 18.819434 6.145127 0.000000 0.000000 0.000000 -19.173029 0.366251 -30.570948 -0.239379 0.561275 9.995308 -0.135129 -12.566336 34.523781 0.000000 0.000000 0.000000 3.160703 -1.141842 20.375916 0.246006 -0.077082 -5.054841 -2.491457 14.303575 10.549678 13.047716 -3.327261 -28.364795 0.000000 0.000000 0.000000 -9.908858 -19.857708 6.597984 -66.657844 -29.485896 8.444481 8.732683 -39.929069 -2.150872 0.000000 0.000000 0.000000 7.108450 10.996272 5.279063 87.423410 19.746379 10.735908 -19.499316 60.154052 -5.959808 0.000000 0.000000 0.000000 
-0.593053 0.930843 -0.041194 -4.175425 -10.257766 10.784965 14.894400 1.241982 -21.123915 -5.415283 1.432557 17.597396 8.631319 17.702614 5.893601 0.000000 0.000000 0.000000 -17.882027 0.490331 -29.619727 -1.002827 0.759275 10.964913 0.500714 -11.120337 31.419660 0.000000 0.000000 0.000000 3.355092 -1.157163 19.079873 -0.212378 0.111135 -4.891208 -2.001692 14.625346 11.013366 12.724333 -3.071737 -28.642574 0.000000 0.000000 0.000000 -9.426118 -18.709694 6.001028 -66.553746 -28.243676 7.475501 8.449782 -40.369805 -2.150187 0.000000 0.000000 0.000000 7.059729 10.207639 4.951705 88.608623 18.839076 10.393259 -19.410605 62.046654 -5.993999 0.000000 0.000000 0.000000 
-0.622130 0.931160 -0.035838 -3.825231 -8.388975 10.531794 15.034759 0.974874 -19.467044 -4.080440 0.867172 15.673289 8.463342 17.475371 7.018036 0.000000 0.000000 0.000000 -17.446237 0.329780 -28.888950 -0.683563 0.750404 12.085348 0.076188 -10.757045 28.764680 0.000000 0.000000 0.000000 3.731961 -1.251424 18.020717 -0.088701 0.075338 -4.386162 -2.355736 14.277109 10.856062 12.376755 -2.706653 -29.179924 0.000000 0.000000 0.000000 -8.151712 -17.604907 5.428054 -67.323795 -27.941071 7.193782 7.869193 -40.029807 -2.022107 0.000000 0.000000 0.000000 6.505465 9.450501 4.605293 89.898027 17.678381 10.030050 -17.024181 63.579860 -4.654539 0.000000 0.000000 0.000000 
-0.651942 0.931725 -0.029389 -4.063661 -7.336052 9.807424 15.418007 0.866819 -18.006535 -3.289259 0.601981 15.406861 8.227650 17.126924 7.132606 0.000000 0.000000 0.000000 -16.431052 0.360858 -28.064792 0.160896 0.643645 13.405738 -0.249878 -10.486291 26.330244 0.000000 0.000000 0.000000 4.457880 -1.397517 17.669535 -0.280904 0.161519 -4.069082 -2.370706 14.775635 10.944296 12.043585 -2.291738 -29.872265 0.000000 0.000000 0.000000 -7.019074 -17.061284 5.088066 -67.964169 -27.314962 6.586006 6.924673 -39.410889 -1.774850 0.000000 0.000000 0.000000 6.010284 9.145406 4.491145 90.182737 17.757053 10.625395 -15.436077 62.891814 -3.520550 0.000000 0.000000 0.000000 
-0.682615 0.931845 -0.021276 -4.147382 -5.650679 9.305018 16.254983 0.761662 -16.391432 -2.573315 0.327885 13.777578 8.057488 16.940837 9.057012 0.000000 0.000000 0.000000 -15.305145 0.359437 -27.183716 0.879781 0.520475 14.721692 -1.020960 -10.755407 23.831912 0.000000 0.000000 0.000000 4.905386 -1.487173 17.039307 0.062364 0.033672 -4.367139 -2.390232 15.115096 11.356231 12.228134 -2.084743 -30.740232 0.000000 0.000000 0.000000 -6.158793 -17.045089 4.966995 -69.180220 -26.698233 5.985438 5.523173 -38.902851 -1.372161 0.000000 0.000000 0.000000 5.954253 8.427904 4.271772 88.999552 17.183034 10.200211 -9.769713 62.684333 0.018276 0.000000 0.000000 0.000000 
-0.714019 0.931374 -0.011627 -4.220073 -3.911141 9.089001 16.814101 0.596166 -14.822965 -1.291121 -0.023280 12.181768 7.780434 16.614649 9.593595 0.000000 0.000000 0.000000 -14.129370 0.383114 -26.615959 1.334590 0.387040 15.103532 -1.628822 -10.995003 22.058433 0.000000 0.000000 0.000000 5.501479 -1.645721 17.018604 0.323621 -0.060916 -4.306077 -2.938242 14.827075 11.342620 12.475343 -2.004094 -31.376556 0.000000 0.000000 0.000000 -5.929578 -16.544832 4.703291 -69.157480 -26.100448 5.429539 3.691193 -39.442005 -0.827297 0.000000 0.000000 0.000000 5.269399 8.762569 4.366571 88.593785 17.231611 10.471531 -5.625104 62.343973 2.410750 0.000000 0.000000 0.000000 
-0.745411 0.930619 -0.001469 -3.890287 -1.913994 8.491251 18.223580 0.501463 -13.247728 -0.564193 -0.188666 10.165113 7.329071 16.222367 13.258712 0.000000 0.000000 0.000000 -12.954537 0.388431 -25.364539 1.542527 0.300698 15.754102 -2.134637 -11.009579 19.892326 0.000000 0.000000 0.000000 5.541082 -1.752350 17.577479 0.934427 -0.299455 -4.298361 -3.546425 13.945012 10.998371 14.056902 -2.348272 -33.377004 0.000000 0.000000 0.000000 -6.568466 -16.721889 4.680969 -69.416076 -24.918946 4.739118 3.254813 -40.267557 -0.756789 0.000000 0.000000 0.000000 6.428702 8.488487 4.455194 86.259412 17.470591 9.959014 0.875170 60.372059 5.964420 0.000000 0.000000 0.000000 
